<svg width="504" height="147" viewBox="0 0 504 147" fill="none" xmlns="http://www.w3.org/2000/svg">
<path d="M0.90271 118.018V0.232422H21.5301V54.2822L73.3676 0.232422H99.1967L43.4131 58.9458L100.99 118.018H73.7263L21.5301 65.2237V118.018H0.90271Z" fill="black"/>
<path d="M96.1772 73.5349C96.1772 47.5265 116.805 27.2578 143.172 27.2578C169.539 27.2578 189.987 47.5265 189.987 73.5349C189.987 99.5434 169.36 119.812 143.172 119.812C116.984 119.812 96.1772 99.5434 96.1772 73.5349ZM123.262 53.7147C112.32 64.6562 112.32 82.4137 123.262 93.3552C134.203 104.297 151.961 104.297 162.902 93.3552C173.844 82.4137 173.844 64.6562 162.902 53.7147C151.961 42.7732 134.203 42.7732 123.262 53.7147Z" fill="black"/>
<path d="M203.26 118.018V29.0515H222.273V38.1993C228.013 31.3833 237.161 27.2578 248.461 27.2578C270.344 27.2578 285.949 42.8629 285.949 67.4364V118.018H266.039V69.2301C266.039 54.7012 258.147 46.0915 245.233 46.0915C232.318 46.0915 223.17 55.06 223.17 69.2301V118.018H203.26Z" fill="black"/>
<path d="M409.445 73.5349C409.445 47.5265 430.072 27.2578 456.439 27.2578C482.806 27.2578 503.254 47.5265 503.254 73.5349C503.254 99.5434 482.627 119.812 456.439 119.812C430.251 119.812 409.445 99.5434 409.445 73.5349ZM436.529 53.7147C425.588 64.6562 425.588 82.4137 436.529 93.3552C447.471 104.297 465.228 104.297 476.17 93.3552C487.111 82.4137 487.111 64.6562 476.17 53.7147C465.228 42.7732 447.471 42.7732 436.529 53.7147Z" fill="black"/>
<path d="M304.066 146.837V29.0515H323.079V40.8898C329.536 32.2801 340.298 27.2578 352.854 27.2578C378.324 27.2578 399.669 47.4368 399.669 73.4452C399.669 99.4537 378.324 119.812 352.854 119.812C340.836 119.812 330.612 115.148 323.975 107.077V146.837H304.066ZM332.017 53.625C321.076 64.5665 321.076 82.324 332.017 93.2655C342.959 104.207 360.716 104.207 371.658 93.2655C382.599 82.324 382.599 64.5665 371.658 53.625C360.716 42.6835 342.959 42.6835 332.017 53.625Z" fill="black"/>
</svg>
